<svg width="82" height="31" viewBox="0 0 82 31" fill="none" xmlns="http://www.w3.org/2000/svg">
<path d="M9.33313 4.7356H1.99048C1.99048 22.2592 1.90201 26.1342 0 27.469V30.569H3.0963C3.31746 25.962 3.14054 21.4412 3.0963 7.5342H6.23683V30.569H9.33313V4.7356Z" fill="white"/>
<path d="M15.5416 16.2746H20.8495V9.38573C20.8495 5.63989 19.5668 4.30518 17.1339 4.30518C14.48 4.30518 12.4453 5.89823 12.4453 10.1607V25.9621C12.4453 29.6649 13.8165 30.9996 16.5148 30.9996C19.4783 30.9996 20.8938 27.8996 20.8053 23.8093L20.6726 18.6426H20.0533L19.9206 23.6801C19.8322 26.4358 19.2571 28.0718 17.9301 28.0718C16.6916 28.0718 15.5416 27.5983 15.5416 24.4983V16.2746ZM16.8243 7.23295C17.709 7.23295 18.1955 7.6635 18.1955 10.8066V15.6718H15.5416V9.73016C15.5416 8.18016 15.7628 7.23295 16.8243 7.23295Z" fill="white"/>
<path d="M33.1574 4.73584H23.957V30.5692H27.0533V7.53444H30.0612V30.5692H33.1574V4.73584Z" fill="white"/>
<path d="M40.4846 0H36.6805V1.98055H40.4846V0ZM41.5462 0V1.98055H45.3502V0H41.5462ZM40.9269 4.30556C38.2729 4.30556 36.2382 5.89862 36.2382 10.1611V25.9625C36.2382 29.6653 37.6094 31 40.3077 31C43.2712 31 44.6867 27.9 44.5982 23.8097L44.4655 18.643H43.8462L43.7135 23.6805C43.6252 26.4362 43.05 28.0722 41.7231 28.0722C40.4846 28.0722 39.3345 27.5987 39.3345 24.4987V16.275H44.6424V9.38612C44.6424 5.64028 43.3598 4.30556 40.9269 4.30556ZM39.3345 15.6722V9.73055C39.3345 8.18055 39.5557 7.23333 40.6173 7.23333C41.502 7.23333 41.9884 7.66388 41.9884 10.8069V15.6722H39.3345Z" fill="white"/>
<path d="M53.2191 16.49L57.3769 4.73584H53.6614L52.6441 14.5956H52.1575L51.0959 10.0317L49.6362 4.73584H46.1419L50.3882 17.0497L45.9648 30.5692H49.6804L51.0517 18.9442H51.4498L52.5114 24.5844L53.9711 30.5692H57.4654L53.2191 16.49Z" fill="white"/>
<path d="M68.7511 4.7356H65.6106L61.895 25.2731H61.2759L61.895 15.3273L62.2048 4.7356H59.02V30.569H62.1604L65.8318 10.0314H66.4953L65.876 19.9773L65.6106 30.569H68.7511V4.7356Z" fill="white"/>
<path d="M78.1735 4.7356V17.0495H74.9445V4.7356H71.8481V30.569H74.9445V17.9106H78.1735V30.569H81.2697V4.7356H78.1735Z" fill="white"/>
</svg>
