<svg width="20" height="20" viewBox="0 0 20 20" fill="none" xmlns="http://www.w3.org/2000/svg">
<path d="M18.3334 10H13.3334L11.6667 12.5H8.33335L6.66669 10H1.66669" stroke="#71717A" stroke-width="1.5" stroke-linecap="round" stroke-linejoin="round"/>
<path d="M4.54169 4.25831L1.66669 9.99998V15C1.66669 15.442 1.84228 15.8659 2.15484 16.1785C2.4674 16.4911 2.89133 16.6666 3.33335 16.6666H16.6667C17.1087 16.6666 17.5326 16.4911 17.8452 16.1785C18.1578 15.8659 18.3334 15.442 18.3334 15V9.99998L15.4584 4.25831C15.3204 3.98064 15.1077 3.74696 14.8442 3.58355C14.5806 3.42014 14.2768 3.33348 13.9667 3.33331H6.03335C5.72328 3.33348 5.41941 3.42014 5.15589 3.58355C4.89237 3.74696 4.67967 3.98064 4.54169 4.25831V4.25831Z" stroke="#71717A" stroke-width="1.5" stroke-linecap="round" stroke-linejoin="round"/>
</svg>
